/* XPM */
static char *_70105c075c9423e938e6a9805db3e99aa2D7ZTZcRLK0kUk[] = {
/* columns rows colors chars-per-pixel */
"64 64 173 2 ",
"   c #5D2500",
".  c #5C2C01",
"X  c #642C03",
"o  c #682E03",
"O  c #622D0A",
"+  c #6B2F0A",
"@  c #643305",
"#  c #6C3403",
"$  c #6D3A06",
"%  c #65330B",
"&  c #6A350B",
"*  c #67380E",
"=  c #6C3A0C",
"-  c #713605",
";  c #723B06",
":  c #793D07",
">  c #71360B",
",  c #743D0B",
"<  c #793E0D",
"1  c #673412",
"2  c #6A3513",
"3  c #6D3C12",
"4  c #6E3718",
"5  c #6E3A19",
"6  c #723E12",
"7  c #793E12",
"8  c #754205",
"9  c #794307",
"0  c #75420D",
"q  c #7A420D",
"w  c #7B490D",
"e  c #6F4014",
"r  c #744214",
"t  c #7C4413",
"y  c #774814",
"u  c #7D4914",
"i  c #75441A",
"p  c #7B461A",
"a  c #76481C",
"s  c #7C4A1B",
"d  c #7D4C22",
"f  c #7F5124",
"g  c #81460F",
"h  c #80490F",
"j  c #804615",
"k  c #824A15",
"l  c #894D16",
"z  c #814619",
"x  c #834C1B",
"c  c #894E1C",
"v  c #845115",
"b  c #8B5216",
"n  c #8E5917",
"m  c #85511D",
"M  c #88531F",
"N  c #89531D",
"B  c #8A561D",
"V  c #89561F",
"C  c #8B571E",
"Z  c #8C551F",
"A  c #8D561E",
"S  c #8E571F",
"D  c #8A521D",
"F  c #8C591D",
"G  c #91561D",
"H  c #925A1E",
"J  c #824D21",
"K  c #834D21",
"L  c #854C21",
"P  c #864D20",
"I  c #844E20",
"U  c #854F21",
"Y  c #874F20",
"T  c #844E22",
"R  c #844F23",
"E  c #834E21",
"W  c #884E20",
"Q  c #894F21",
"!  c #884F21",
"~  c #845021",
"^  c #865021",
"/  c #865220",
"(  c #875321",
")  c #865022",
"_  c #875122",
"`  c #875123",
"'  c #855024",
"]  c #865324",
"[  c #875226",
"{  c #845223",
"}  c #885021",
"|  c #885321",
" . c #8A5221",
".. c #895023",
"X. c #885223",
"o. c #895420",
"O. c #885520",
"+. c #8A5521",
"@. c #895621",
"#. c #885422",
"$. c #895422",
"%. c #895523",
"&. c #8A5523",
"*. c #8B5622",
"=. c #8A5722",
"-. c #8C5421",
";. c #8D5620",
":. c #8E5721",
">. c #8C5423",
",. c #8C5723",
"<. c #8E5623",
"1. c #885224",
"2. c #895325",
"3. c #885327",
"4. c #885425",
"5. c #8A5425",
"6. c #895526",
"7. c #8A5426",
"8. c #8B5526",
"9. c #8B5527",
"0. c #8C5627",
"q. c #8B5422",
"w. c #865825",
"e. c #8D5B23",
"r. c #8B5924",
"t. c #8D5824",
"y. c #8D5927",
"u. c #8E5927",
"i. c #8D5C24",
"p. c #8D5924",
"a. c #845429",
"s. c #895428",
"d. c #8A5529",
"f. c #8A5428",
"g. c #8D5729",
"h. c #8C572B",
"j. c #8A562A",
"k. c #86592A",
"l. c #8D592A",
"z. c #8F592B",
"x. c #8D582C",
"c. c #8F5B2C",
"v. c #8C5A2A",
"b. c #915725",
"n. c #905921",
"m. c #905923",
"M. c #905825",
"N. c #915A24",
"B. c #905D26",
"V. c #915E27",
"C. c #925B25",
"Z. c #90572C",
"A. c #905D28",
"S. c #905A2C",
"D. c #905A2E",
"F. c #915D2D",
"G. c #925E2C",
"H. c #935F2F",
"J. c #935C2A",
"K. c #995E2C",
"L. c #8C5B31",
"P. c #935F33",
"I. c #8E602F",
"U. c #956023",
"Y. c #936029",
"T. c #93602B",
"R. c #95622D",
"E. c #96632E",
"W. c #95612D",
"Q. c #9A612D",
"!. c #946030",
"~. c #926130",
"^. c #9B6431",
/* pixels */
"; 8 ; 8 ; 9 q w k g j g q q t t 7 7 7 7 > 7 z Q Q Q z c c z j k j z x c z j j z t t t X.B %.N v %.m =.m m %.M N.n.M N A n.A B A ",
"0 t q y 0 , < q q 9 q t r j z j 7 7 z z 7 7 p z z z j c x x x z z k x j t 7 t t z t t :.X.M x m m m =.=.B t.A A A Z A 0.n.:.N M ",
"r , , r t t r , p t p p t s x s p p z p 7 7 7 p j p p x z t x z j x x p t z z p , > , x %.m M t.u m v s m N :.m b.:.%.B B %.%.t.",
"6 & & = 6 t t s W x x T x s x x ! R L J z J L x z z x x x t m x c W c x x W x x ~ ~ x 9.M x z u m x y w u t x x t q q , , 0 q u ",
"K x x s t r t m Y.Y.U.I.y.i.Y.w.z.j.d.d.h.h.D.l.D.h.z.c.~ ~ h.X.! L x L R 3.X.3.9.9.3.h.0.3.3.3.y.~ r t x t x x s k x k u u u w ",
"F.P.P.D.u.:.:.u.V V m m s v s u [ R [ d.[ d.h.d.T 9.d.d.T s K p 3.J z z L T X.3.T ~ x x x p x x x s s ~ h.3.9.d.m ] %.Z.C.T.E.E.",
"t t r t p x x s m s v m s s s s p i i p p a s d d [ [ d.[ K ' d p p t 6 6 6 6 6 p p p p p t z s u u m B :.N.d.9.9.m L s p p i s ",
"l.9.x r 0 t u t u y y u u s s s p 6 = = 3 6 r 6 p K d d K d f E J R d.[ T W 3.3.K K T R d.s R d.m v B w u x s t r r 5 d a.a.a.j.",
"J.J.x q t t t u u t r , r 6 r 6 e * e y a f f f L.L.L.f f L.f f x.P.x.j.f.x.D.x.j.[ j.j.3.J J J m B ~ [ 9.l.k.w.p i r a s p d 3.",
"k b u 9 9 9 9 q r , $ o @ # & = @ @ @ e 3 e i i 5 d d a f d d a 5 s d i d J J d d L L d s x J d s K T d J s p 2 * & = e r y s K ",
"8 w w 9 k h h l k u k u y = = = e 8 e e e e = = d a d d a 5 1 1 2 2 O O * 3 3 3 = 6 2 + % % & & 2 4 4 1 O O 3 5 3 y y 0 8 w w 9 ",
"v v v k v v u u u u u s x t s ~ f a s s r e e i 5 5 i d d 5 e a a i 6 2 3 i r e i i 6 5 = & O * 2 4 4 2 O % 1 3 6 r s u w v u w ",
"u y u r r y , $ 0 = = & * @ 2 r a r e y a a d d d i a a i i 5 5 5 e 5 e e i e 3 3 3 3 6 3 & % 2 % * & O % % . . . @ @ & 8 0 0 0 ",
"s f K w.~ f K f d s 9.k.L.a.L.v.k.w.f m d a a 5 a d d d d d d 5 3 3 3 3 i i i i 6 i p i 6 i p i i p 5 3 a f f f a f s a a s f m ",
"f f a.a.w.w.w.w.w.w.k.k.v.w.k.k.k.k.L.L.L.L.L.L.L.f f f f f a 1 * 1 % 1 1 * 3 3 * 3 = = 2 6 2 2 = a s a d ' d a.a.' w.f { { { m ",
"a i r a a f f ~ ~ f w.w.I.y.k.k.k.k.k.k.L.f a.f f d d d f f a a 3 * * 3 3 3 3 3 6 3 2 3 6 3 6 6 6 y p i a d a a i a f s ~ { m s ",
"r s { f f s s s s a s y p a r r f s r s s s s f f f k.a.f a.f f f d d d d d d r 5 i i i e 3 3 r r 6 r r r , 3 = s t r t y m s r ",
"y s s s s f s f K s r 6 p s K ~ ~ ~ ~ a.k.k.w.w.k.k.w.f f k.f f L.f 5 d d f a.i 5 i d s s s a f s s p t t s s x t s m s t u u u ",
"f i = * = = 0 e r r d w.[ d.k.k.k.c.w.w.{ f d ~ f s f f f f k.L.L.f d d d d d 5 r i a i r i y i r r r 6 0 r r = = 0 e $ , y ~ m ",
"* @ . . @ @ & e e i s s y y x x m s r $ @ @ @ % @ @ * e a a a a f d i i 4 i a.d f s ~ a d f f s r p r r 6 r r 6 r r 0 r r y s r ",
"e 0 y y 0 = , 0 0 0 0 w w w w w s s s i y i e r * $ a f k.f d i d f f L.c.k.k.a.a.w.K d a { f s r p s i p s s s p s d s r 3 3 , ",
"m w.c.T.] y y u 0 0 u v B v v u w s y y y y y y a y d f a.f d d 5 d d d a a ' f k.k.k.s y i i r s d ' [ d s y t i r p s 6 $ 3 p ",
"@ @ = r 0 e 0 0 r r u w y w u u 0 y y r r 0 e e i e e * 3 e 3 e e e 5 a s a f w.f m ~ s s s s s s s s s t r & & = & , r = % & % ",
"y 0 0 = 6 , r e 0 0 = y s w.m m f w.i.k.k.w.f m a.f f d d f d d a f d a d K k.I.v.k.k.c.I.~.k.c.h.~ x K d s y s s u s s s t s y ",
"k.c.I.i.c.c.c.F.k.d ~ ~ z.d.l.!.Y.Y.I.I.~.c.c.l.w.{ k.a.k.~ a.w.f r s f s s s f ~ ~ ] ] ] y.l.k.k.y.k.i.y.] { y.l.F.R.T.~.R.v.v.",
"m u u y y y y y x t s r s t p K s y 0 u m ~ s y p s s y r s s s e 0 s a y y y y y y s y y s x y m y 0 0 0 y 0 y r u s s s u y s ",
"u 8 8 8 0 $ $ , s s x t s s s K s u u u u t y u t s r t s ] w.9.I.=.w.m s s v f m %.=.] ] m ~ m m y $ $ 0 0 0 0 0 y q u u 0 0 y ",
"w u y 0 u y r = r t s i s d x x m m m s s u u z x x r y t ~ %.~ m w.m m V m w.m m ] y.y.m m %.m %.u 0 $ 0 0 0 0 u 0 0 u u u u k ",
"s s s s s y t r t i i p p s s s m m m x m B m m x u x t x m :.m m =.%.m v u m s m k m x u s k k x t y 0 0 y q t 0 u u u u u v u ",
"{ m K w.w.~ K [ [ T K ~ 3.h.~ %.m m x x m x m x u x m k m x M x u =.m u 0 0 0 0 q t u 0 9 9 y 0 0 y t t y t t u 0 B t.C F e.=.e.",
"w.w.] y.l.w.9.l.z.y.~ =.t.i.] =.=.:.%.M m m M :.C.J.Q.N.t.B N v u m B k k u 0 u u u k z t x x z x x ~ ~ m m X.%.u %.C.u.t.t.e.e.",
"=.=.m m m m m ~ u.u.B m m B k u m m u u k m c x m -.A N.B A N x C.F m y m m x B k m m X.Z 0.u.:.9.X.9.~ m x m B m =.%.m B v B B ",
"t k u t u u x k x u B =.=.V m y.N.Q x c :.M c M -.M c M :.:.A c m m m x s m m x x x x u m x m m x x x s t r t 9 j z z h k k w h ",
"q 9 q l x k m %.%.m m T.^.Y.I.y.Z.J.J.J.J.K.K.K.K.J.n.n.N.N.A Z C.u.t.:.%.u.u.X.M M m x m x x x x m %.%.t $ < , q 9 , , 9 q w k ",
"q < q u k x x m m m ] i.T.I.i.y.%.N.b.>.-.b.0.0.J.b.:.-.-.-.Z c %.N x x N M Z c N c k m X.x x M m m x m t $ $ > , # > 7 < 7 7 7 ",
"$ - - - - , 0 , , 9 0 0 0 w t 0 > , , $ , t z t j t t t t t t t t t j j q q u z t t , t t t q t u q q t , < < q < = 7 t 6 6 7 , ",
"- , ; - - 9 q , y , , ; q w 0 , , 6 < $ < p x z x z z z j j t j j q t w 9 ; q t < < - 9 , , $ < 9 0 j q < 9 w t l h m l k k l 8 ",
"9 , , , , , 0 0 0 0 0 0 0 q q 0 q t t 7 < r t t z t t t t 7 7 j w < ; 9 , ; < < , , - - ; > > < r 0 w q q t q 9 9 9 q 9 9 9 9 - ",
"z j z l u t u k u k x k u 9 t u t t t t j j z x x z j z j j t j < < < < < < t j < < < , t < < t g : < q j c k k t t z 9 u u v t ",
"l M A M m M m m m B =.C N m m B z j r t z x c -.W c x c l z j j k k l k k k Z n.-.c c c >.c c c n.l N c l k z N x z x t 3.x %.X.",
"%.:.:.Z Z A B N :.M c l k =.C.B l - - 9 < t t q k j k j < q 7 j q q g k k l Z G c c x k x z l c c b n.G b c c G %.M x M X.-.3.>.",
"x x x k j z l N :.B N k k m N m k ; w k z w w z z q q j j q : < q q j j j j z z j j q j j t j z z j j z j q < q t j t j j k x x ",
"N A :.N l N m N A :.:.F =.u.u.n.C.i.C.=.N %.A :.N.z t x l z j z j j z g j j z j j 7 j j j q j c M l c G c k z k b N b b h v v b ",
"n.n.N.J.N.n.n.C.n.N.u.t.t.=.m m B C.J.t.N.J.N.-.C.z j x x c x c k z k z z z x x j j t 7 < - # , 7 < q q < j G C.C.U.U.J.U.U.C.U.",
"g g g k k k N A N B m m t.u.%.m u u y x ~ k u u x t t j z k z p z t p z x z t t t j j j t q < j t q j < # # # o > - , > : , < 7 ",
"- # # # # # # o ; ; $ ; x J.W.E.W.F.l.F.Z.%.9.J.h.! 3.! W Z.f.>.X.z t z x p z t t t q r < ; , , r t x x k x 7 # # # # # - - & # ",
"h h g g w 9 ; ; # # X X 0 x x m m 9.z.c.l.l.F.9.P.D.D.D.Z.K.D.Z.Z.W T ! W ! 3.T c x x x %.:.-.b.x r 7 t z c -.7 c l l k k l k k ",
"l l g g k h u l u l 0 $ y u t y r r 6 p t r s p J 7 J R R R d p z z x R ! ! c z z z z k M A n.-.c 0 > 7 < j 7 # < 7 g : g g k g ",
"l b b G G n.n.-.X.X.9.~ B m m x x p &   & O     O + O O % X X X + + o o 7 7 < 7 z c l j k l g g q < 7 t 7 7 z t 7 X o # X # g u ",
"n G G G b c x x x u t t s z k x x %.t o @ # o @ = 3 X X % $ 3 3 o + + + o o o > l b.K.K.G b.G K.J.K.K.b.>.>.z 7 > - > 7 , z :.n.",
"G G G G B l j q < , t x :.:.t.C.H U.b w g w 9 8 8 9 9 0 w u B C Q z 7 z 7 z 7 < z Q b.-.c c c l z k c Q W W z < 7 ! ! x M -.X.-.",
"l k l l c N z q q , , t j x B C.H n n H H U.U.C.e.C.F N B n B B Q Q b.Q 7 7 g z c j j j z l z 7 j < - < - & < 7 < ! >.Q b.Z c x ",
"l l l l c c c M x c -.b.0.M Z G n.G G H Z Z c n.F A B m x F J.Q.K.K.Q.K.g g z z j 7 g z 7 7 j 7 < < < j t < < > $ t c X.c x m N ",
"g : : < < g < q j t t r < , q j c c c c l c b.Q :.X.0.m x M Z.Q.K.K.K.G - : < g 7 j z z 7 7 < < q < - - # - # o o # , < - - ; < ",
"g g : g k z j t r t t z j j j j c x j j z c z j x t x j , t t x l g g : - - < < < < < 7 7 7 < < > < j j j x z t , t t t q q j z ",
"G c G b.b.c Z -.Z.b.>.>.n.b.b.b.b.b.J.K.K.Z.>.J.Z.-.Z.X.x x x c c l l l G c b.c c W l z z z j z j l Z -.l z x W x -.X.x -.Z M :.",
"Q.C.J.C.J.C.t.Z.C.J.0.N.b.b.J.J.J.J.K.J.b.b.n.n.-.c n.-.k t z x z l j 7 j g 7 j j q q < < 7 t j < q l c c x x j x c N.J.J.C.N.C.",
"k k x z c c x m c c x M c z l x c l c c c c z z z j z k t w t x < 7 < < 7 g 7 g < < < t < < t < ; : t z c x x t z j t j k k j t ",
"n.n.:.%.B %.~ u.3.l.Z.Z.Q z z L x x x z z l z x x k k z j t z t z z z Q f.>.b.b.M Z A A b M Z Z C.n.Z M Z :.-.:.J.b.X.Z F C.C.C.",
"n.t.N.%.:.u.y.T.Q.^.Q.Q.b.z z z z z j t 7 j p j j t r 7 < r t 7 j j z Q >.>.b.c X.-.:.t.n.:.n.:.Z n.n.Z -.M c -.A Z M c A t.t.C.",
"m v m u v v m m 9.N.h.Z.! z z z z t j t j x x j t t < 7 7 t x z K x x 9.Q R X.x x u u x m x m x c B M M Z Z c b M b N N m m M l ",
"k m B u s s y m 0 q r p z p z L p z z t x X.c Q n.Z X.c x W >.3.~ ~ x x z z x t x x u x u u x k c l k l Z A M N :.A N M A :.m u ",
"u y v s m m m m ~ X.R ! Q Q f.Q Q Q ! L W J.J.J.>.>.-.X.T ! L x x ~ x s x s x ~ x p p u s u z u t u M n.C.J.N.n.:.Z m B F t.B u ",
"Y.Y.U.e.i.Y.m =.~ %.! Q f.Q f.f.f.! d.W W Z.>.3.W x L -.>.f.! x x ] x x m x m %.T x p x s t s u z l :.N.Z M n.:.:.n.t.A :.t.%.B "
};
